# Blender v3.1.2 OBJ File: ''
# www.blender.org
mtllib barstool.mtl
o barstool
v -2.995840 10.785024 2.995842
v -2.995840 10.185859 -2.995839
v -2.995840 10.185857 2.995842
v -2.995840 10.785025 1.797506
v -2.995840 10.785025 1.198338
v -2.995840 10.785025 -1.198334
v -2.995840 10.785025 -1.797503
v -2.995840 10.785026 -2.995839
v -2.995840 11.384192 2.995842
v -2.995840 11.384193 1.797506
v -2.995840 11.384193 1.198338
v -2.995840 11.384193 -1.198334
v -2.995840 11.384193 -1.797502
v -2.995840 11.384194 -2.995838
v -2.396672 0.599168 2.396672
v -2.396672 -0.000000 1.797504
v -2.396672 -0.000000 2.396672
v -2.396672 0.599168 1.797504
v -2.396672 0.599168 -1.797504
v -2.396672 0.000000 -2.396672
v -2.396672 0.000000 -1.797504
v -2.396672 0.599168 -2.396672
v -2.396672 9.586689 2.396674
v -2.396672 9.586689 1.797506
v -2.396672 9.586689 -1.797503
v -2.396672 9.586689 -2.396671
v -2.396672 10.185858 2.396674
v -2.396672 10.185858 1.797506
v -2.396672 10.185858 -1.797503
v -2.396672 10.185858 -2.396671
v 1.797504 0.599168 2.396672
v 1.797504 -0.000000 1.797504
v 1.797504 -0.000000 2.396672
v 1.797504 0.599168 1.797504
v 1.797504 0.599168 -1.797504
v 1.797504 0.000000 -2.396672
v 1.797504 0.000000 -1.797504
v 1.797504 0.599168 -2.396672
v 1.797504 9.586689 2.396674
v 1.797504 9.586689 1.797506
v 1.797504 9.586689 -1.797503
v 1.797504 9.586689 -2.396671
v 1.797504 10.185858 2.396674
v 1.797504 10.185858 1.797506
v 1.797504 10.185858 -1.797503
v 1.797504 10.185858 -2.396671
v -1.797504 -0.000000 2.396672
v -1.797504 -0.000000 1.797504
v -1.797504 0.599168 2.396672
v -1.797504 0.599168 1.797504
v -1.797504 0.000000 -1.797504
v -1.797504 0.000000 -2.396672
v -1.797504 0.599168 -1.797504
v -1.797504 0.599168 -2.396672
v -1.797504 9.586689 2.396674
v -1.797504 9.586689 1.797506
v -1.797504 9.586689 -1.797503
v -1.797504 9.586689 -2.396671
v -1.797504 10.185858 2.396674
v -1.797504 10.185858 1.797506
v -1.797504 10.185858 -1.797503
v -1.797504 10.185858 -2.396671
v 2.396672 -0.000000 2.396672
v 2.396672 -0.000000 1.797504
v 2.396672 0.599168 2.396672
v 2.396672 0.599168 1.797504
v 2.396672 0.000000 -1.797504
v 2.396672 0.000000 -2.396672
v 2.396672 0.599168 -1.797504
v 2.396672 0.599168 -2.396672
v 2.396672 9.586689 2.396674
v 2.396672 9.586689 1.797506
v 2.396672 9.586689 -1.797503
v 2.396672 9.586689 -2.396671
v 2.396672 10.185858 2.396674
v 2.396672 10.185858 1.797506
v 2.396672 10.185858 -1.797503
v 2.396672 10.185858 -2.396671
v 2.995840 10.185857 2.995842
v 2.995840 10.185859 -2.995839
v 2.995840 10.785024 2.995842
v 2.995840 10.785025 1.797506
v 2.995840 10.785025 1.198338
v 2.995840 10.785025 -1.198334
v 2.995840 10.785025 -1.797503
v 2.995840 10.785026 -2.995839
v 2.995840 11.384192 2.995842
v 2.995840 11.384193 1.797506
v 2.995840 11.384193 1.198338
v 2.995840 11.384193 -1.198334
v 2.995840 11.384193 -1.797502
v 2.995840 11.384194 -2.995838
v 2.995840 10.185857 2.995842
v -2.995840 10.785024 2.995842
v -2.995840 10.185857 2.995842
v 2.995840 10.785024 2.995842
v -2.995840 11.384192 2.995842
v 2.995840 11.384192 2.995842
v -1.797504 -0.000000 2.396672
v -2.396672 0.599168 2.396672
v -2.396672 -0.000000 2.396672
v -1.797504 0.599168 2.396672
v -2.396672 9.586689 2.396674
v -1.797504 9.586689 2.396674
v -2.396672 10.185858 2.396674
v -1.797504 10.185858 2.396674
v 2.396672 -0.000000 2.396672
v 1.797504 0.599168 2.396672
v 1.797504 -0.000000 2.396672
v 2.396672 0.599168 2.396672
v 1.797504 9.586689 2.396674
v 2.396672 9.586689 2.396674
v 1.797504 10.185858 2.396674
v 2.396672 10.185858 2.396674
v -1.797504 0.000000 -1.797504
v -2.396672 0.599168 -1.797504
v -2.396672 0.000000 -1.797504
v -1.797504 0.599168 -1.797504
v -2.396672 9.586689 -1.797503
v -1.797504 9.586689 -1.797503
v -2.396672 10.185858 -1.797503
v -1.797504 10.185858 -1.797503
v 2.396672 0.000000 -1.797504
v 1.797504 0.599168 -1.797504
v 1.797504 0.000000 -1.797504
v 2.396672 0.599168 -1.797504
v 1.797504 9.586689 -1.797503
v 2.396672 9.586689 -1.797503
v 1.797504 10.185858 -1.797503
v 2.396672 10.185858 -1.797503
v -2.396672 -0.000000 1.797504
v -2.396672 0.599168 1.797504
v -1.797504 -0.000000 1.797504
v -2.396672 9.586689 1.797506
v -1.797504 0.599168 1.797504
v -2.396672 10.185858 1.797506
v -1.797504 9.586689 1.797506
v -1.797504 10.185858 1.797506
v 1.797504 -0.000000 1.797504
v 1.797504 0.599168 1.797504
v 2.396672 -0.000000 1.797504
v 1.797504 9.586689 1.797506
v 2.396672 0.599168 1.797504
v 1.797504 10.185858 1.797506
v 2.396672 9.586689 1.797506
v 2.396672 10.185858 1.797506
v -2.396672 0.000000 -2.396672
v -2.396672 0.599168 -2.396672
v -1.797504 0.000000 -2.396672
v -2.396672 9.586689 -2.396671
v -1.797504 0.599168 -2.396672
v -2.396672 10.185858 -2.396671
v -1.797504 9.586689 -2.396671
v -1.797504 10.185858 -2.396671
v 1.797504 0.000000 -2.396672
v 1.797504 0.599168 -2.396672
v 2.396672 0.000000 -2.396672
v 1.797504 9.586689 -2.396671
v 2.396672 0.599168 -2.396672
v 1.797504 10.185858 -2.396671
v 2.396672 9.586689 -2.396671
v 2.396672 10.185858 -2.396671
v -2.995840 10.185859 -2.995839
v -2.995840 10.785026 -2.995839
v 2.995840 10.185859 -2.995839
v -2.995840 11.384194 -2.995838
v 2.995840 10.785026 -2.995839
v 2.995840 11.384194 -2.995838
v -2.396672 -0.000000 1.797504
v -1.797504 -0.000000 2.396672
v -2.396672 -0.000000 2.396672
v -1.797504 -0.000000 1.797504
v 1.797504 -0.000000 1.797504
v 2.396672 -0.000000 2.396672
v 1.797504 -0.000000 2.396672
v 2.396672 -0.000000 1.797504
v -2.396672 0.000000 -2.396672
v -1.797504 0.000000 -1.797504
v -2.396672 0.000000 -1.797504
v -1.797504 0.000000 -2.396672
v 1.797504 0.000000 -2.396672
v 2.396672 0.000000 -1.797504
v 1.797504 0.000000 -1.797504
v 2.396672 0.000000 -2.396672
v -2.396672 10.185858 2.396674
v 2.995840 10.185857 2.995842
v -2.995840 10.185857 2.995842
v -1.797504 10.185858 2.396674
v 1.797504 10.185858 2.396674
v 2.396672 10.185858 2.396674
v -2.396672 10.185858 1.797506
v -1.797504 10.185858 1.797506
v 1.797504 10.185858 1.797506
v 2.396672 10.185858 1.797506
v -2.396672 10.185858 -1.797503
v -1.797504 10.185858 -1.797503
v 1.797504 10.185858 -1.797503
v 2.396672 10.185858 -1.797503
v -2.396672 10.185858 -2.396671
v -1.797504 10.185858 -2.396671
v 1.797504 10.185858 -2.396671
v 2.396672 10.185858 -2.396671
v -2.995840 10.185859 -2.995839
v 2.995840 10.185859 -2.995839
v -2.995840 11.384192 2.995842
v 2.995840 11.384192 2.995842
v -2.995840 11.384193 1.797506
v 2.995840 11.384193 1.797506
v -2.995840 11.384193 1.198338
v 2.995840 11.384193 1.198338
v -2.995840 11.384193 -1.198334
v 2.995840 11.384193 -1.198334
v -2.995840 11.384193 -1.797502
v 2.995840 11.384193 -1.797502
v -2.995840 11.384194 -2.995838
v 2.995840 11.384194 -2.995838
vt 0.029297 0.500000
vt 0.029297 0.500000
vt 0.029297 0.500000
vt 0.029297 0.500000
vt 0.029297 0.500000
vt 0.029297 0.500000
vt 0.029297 0.500000
vt 0.029297 0.500000
vt 0.025391 0.500000
vt 0.025391 0.500000
vt 0.025391 0.500000
vt 0.029297 0.500000
vt 0.025391 0.500000
vt 0.025391 0.500000
vt 0.025391 0.500000
vt 0.025391 0.500000
vt 0.029297 0.500000
vt 0.029297 0.500000
vt 0.025391 0.500000
vt 0.025391 0.500000
vt 0.025391 0.500000
vt 0.025391 0.500000
vt 0.029297 0.500000
vt 0.025391 0.500000
vt 0.021484 0.500000
vt 0.021484 0.500000
vt 0.021484 0.500000
vt 0.021484 0.500000
vt 0.021484 0.500000
vt 0.021484 0.500000
vt 0.021484 0.500000
vt 0.021484 0.500000
vt 0.029297 0.500000
vt 0.029297 0.500000
vt 0.029297 0.500000
vt 0.029297 0.500000
vt 0.029297 0.500000
vt 0.029297 0.500000
vt 0.029297 0.500000
vt 0.029297 0.500000
vt 0.021484 0.500000
vt 0.021484 0.500000
vt 0.021484 0.500000
vt 0.021484 0.500000
vt 0.021484 0.500000
vt 0.021484 0.500000
vt 0.021484 0.500000
vt 0.021484 0.500000
vt 0.021484 0.500000
vt 0.021484 0.500000
vt 0.021484 0.500000
vt 0.021484 0.500000
vt 0.021484 0.500000
vt 0.021484 0.500000
vt 0.021484 0.500000
vt 0.021484 0.500000
vt 0.029297 0.500000
vt 0.029297 0.500000
vt 0.029297 0.500000
vt 0.029297 0.500000
vt 0.029297 0.500000
vt 0.029297 0.500000
vt 0.029297 0.500000
vt 0.029297 0.500000
vt 0.021484 0.500000
vt 0.021484 0.500000
vt 0.021484 0.500000
vt 0.021484 0.500000
vt 0.021484 0.500000
vt 0.021484 0.500000
vt 0.021484 0.500000
vt 0.021484 0.500000
vt 0.021484 0.500000
vt 0.021484 0.500000
vt 0.021484 0.500000
vt 0.021484 0.500000
vt 0.021484 0.500000
vt 0.021484 0.500000
vt 0.021484 0.500000
vt 0.021484 0.500000
vt 0.029297 0.500000
vt 0.029297 0.500000
vt 0.029297 0.500000
vt 0.029297 0.500000
vt 0.029297 0.500000
vt 0.029297 0.500000
vt 0.029297 0.500000
vt 0.029297 0.500000
vt 0.021484 0.500000
vt 0.021484 0.500000
vt 0.021484 0.500000
vt 0.021484 0.500000
vt 0.021484 0.500000
vt 0.021484 0.500000
vt 0.021484 0.500000
vt 0.021484 0.500000
vt 0.021484 0.500000
vt 0.021484 0.500000
vt 0.021484 0.500000
vt 0.021484 0.500000
vt 0.021484 0.500000
vt 0.021484 0.500000
vt 0.021484 0.500000
vt 0.021484 0.500000
vt 0.029297 0.500000
vt 0.029297 0.500000
vt 0.029297 0.500000
vt 0.029297 0.500000
vt 0.029297 0.500000
vt 0.029297 0.500000
vt 0.029297 0.500000
vt 0.029297 0.500000
vt 0.021484 0.500000
vt 0.021484 0.500000
vt 0.021484 0.500000
vt 0.021484 0.500000
vt 0.021484 0.500000
vt 0.021484 0.500000
vt 0.021484 0.500000
vt 0.021484 0.500000
vt 0.029297 0.500000
vt 0.029297 0.500000
vt 0.029297 0.500000
vt 0.029297 0.500000
vt 0.029297 0.500000
vt 0.029297 0.500000
vt 0.029297 0.500000
vt 0.029297 0.500000
vt 0.025391 0.500000
vt 0.025391 0.500000
vt 0.025391 0.500000
vt 0.029297 0.500000
vt 0.025391 0.500000
vt 0.025391 0.500000
vt 0.025391 0.500000
vt 0.025391 0.500000
vt 0.029297 0.500000
vt 0.029297 0.500000
vt 0.025391 0.500000
vt 0.025391 0.500000
vt 0.025391 0.500000
vt 0.025391 0.500000
vt 0.029297 0.500000
vt 0.025391 0.500000
vt 0.029297 0.500000
vt 0.029297 0.500000
vt 0.029297 0.500000
vt 0.025391 0.500000
vt 0.025391 0.500000
vt 0.025391 0.500000
vt 0.029297 0.500000
vt 0.025391 0.500000
vt 0.021484 0.500000
vt 0.021484 0.500000
vt 0.021484 0.500000
vt 0.029297 0.500000
vt 0.029297 0.500000
vt 0.029297 0.500000
vt 0.021484 0.500000
vt 0.021484 0.500000
vt 0.021484 0.500000
vt 0.021484 0.500000
vt 0.029297 0.500000
vt 0.021484 0.500000
vt 0.021484 0.500000
vt 0.021484 0.500000
vt 0.021484 0.500000
vt 0.029297 0.500000
vt 0.029297 0.500000
vt 0.029297 0.500000
vt 0.021484 0.500000
vt 0.021484 0.500000
vt 0.021484 0.500000
vt 0.021484 0.500000
vt 0.029297 0.500000
vt 0.021484 0.500000
vt 0.021484 0.500000
vt 0.021484 0.500000
vt 0.021484 0.500000
vt 0.029297 0.500000
vt 0.029297 0.500000
vt 0.029297 0.500000
vt 0.021484 0.500000
vt 0.021484 0.500000
vt 0.021484 0.500000
vt 0.021484 0.500000
vt 0.029297 0.500000
vt 0.021484 0.500000
vt 0.021484 0.500000
vt 0.021484 0.500000
vt 0.021484 0.500000
vt 0.029297 0.500000
vt 0.029297 0.500000
vt 0.029297 0.500000
vt 0.021484 0.500000
vt 0.021484 0.500000
vt 0.021484 0.500000
vt 0.021484 0.500000
vt 0.029297 0.500000
vt 0.021484 0.500000
vt 0.021484 0.500000
vt 0.021484 0.500000
vt 0.021484 0.500000
vt 0.029297 0.500000
vt 0.029297 0.500000
vt 0.029297 0.500000
vt 0.021484 0.500000
vt 0.021484 0.500000
vt 0.021484 0.500000
vt 0.021484 0.500000
vt 0.029297 0.500000
vt 0.021484 0.500000
vt 0.021484 0.500000
vt 0.021484 0.500000
vt 0.021484 0.500000
vt 0.029297 0.500000
vt 0.029297 0.500000
vt 0.029297 0.500000
vt 0.021484 0.500000
vt 0.021484 0.500000
vt 0.021484 0.500000
vt 0.021484 0.500000
vt 0.029297 0.500000
vt 0.021484 0.500000
vt 0.021484 0.500000
vt 0.021484 0.500000
vt 0.021484 0.500000
vt 0.029297 0.500000
vt 0.029297 0.500000
vt 0.029297 0.500000
vt 0.021484 0.500000
vt 0.021484 0.500000
vt 0.021484 0.500000
vt 0.021484 0.500000
vt 0.029297 0.500000
vt 0.021484 0.500000
vt 0.021484 0.500000
vt 0.021484 0.500000
vt 0.021484 0.500000
vt 0.029297 0.500000
vt 0.029297 0.500000
vt 0.029297 0.500000
vt 0.021484 0.500000
vt 0.021484 0.500000
vt 0.021484 0.500000
vt 0.021484 0.500000
vt 0.029297 0.500000
vt 0.021484 0.500000
vt 0.029297 0.500000
vt 0.029297 0.500000
vt 0.029297 0.500000
vt 0.025391 0.500000
vt 0.025391 0.500000
vt 0.025391 0.500000
vt 0.029297 0.500000
vt 0.025391 0.500000
vt 0.021484 0.500000
vt 0.021484 0.500000
vt 0.021484 0.500000
vt 0.021484 0.500000
vt 0.021484 0.500000
vt 0.021484 0.500000
vt 0.021484 0.500000
vt 0.021484 0.500000
vt 0.021484 0.500000
vt 0.021484 0.500000
vt 0.021484 0.500000
vt 0.021484 0.500000
vt 0.021484 0.500000
vt 0.021484 0.500000
vt 0.021484 0.500000
vt 0.021484 0.500000
vt 0.029297 0.500000
vt 0.029297 0.500000
vt 0.029297 0.500000
vt 0.029297 0.500000
vt 0.029297 0.500000
vt 0.029297 0.500000
vt 0.029297 0.500000
vt 0.029297 0.500000
vt 0.029297 0.500000
vt 0.029297 0.500000
vt 0.029297 0.500000
vt 0.029297 0.500000
vt 0.029297 0.500000
vt 0.029297 0.500000
vt 0.029297 0.500000
vt 0.029297 0.500000
vt 0.029297 0.500000
vt 0.029297 0.500000
vt 0.029297 0.500000
vt 0.029297 0.500000
vt 0.025391 0.500000
vt 0.025391 0.500000
vt 0.025391 0.500000
vt 0.025391 0.500000
vt 0.029297 0.500000
vt 0.029297 0.500000
vt 0.029297 0.500000
vt 0.029297 0.500000
vt 0.025391 0.500000
vt 0.025391 0.500000
vt 0.025391 0.500000
vt 0.025391 0.500000
vt 0.029297 0.500000
vt 0.029297 0.500000
vt 0.029297 0.500000
vt 0.029297 0.500000
vt 0.025391 0.500000
vt 0.025391 0.500000
vt 0.025391 0.500000
vt 0.025391 0.500000
vn -1.0000 0.0000 0.0000
vn 1.0000 0.0000 0.0000
vn 0.0000 0.0000 1.0000
vn 0.0000 0.0000 -1.0000
vn 0.0000 -1.0000 -0.0000
vn 0.0000 1.0000 0.0000
usemtl palette.047
s 1
f 1/1/1 2/2/1 3/3/1
f 4/4/1 2/2/1 1/1/1
f 5/5/1 2/2/1 4/4/1
f 6/6/1 2/2/1 5/5/1
f 7/7/1 2/2/1 6/6/1
f 8/8/1 2/2/1 7/7/1
f 9/9/1 4/10/1 1/11/1
f 10/12/1 5/5/1 4/4/1
f 10/13/1 4/10/1 9/9/1
f 11/14/1 6/15/1 5/16/1
f 11/17/1 5/5/1 10/12/1
f 12/18/1 7/7/1 6/6/1
f 12/19/1 6/15/1 11/14/1
f 13/20/1 8/21/1 7/22/1
f 13/23/1 7/7/1 12/18/1
f 14/24/1 8/21/1 13/20/1
f 15/25/1 16/26/1 17/27/1
f 18/28/1 16/26/1 15/25/1
f 19/29/1 20/30/1 21/31/1
f 22/32/1 20/30/1 19/29/1
f 23/33/1 18/34/1 15/35/1
f 24/36/1 18/34/1 23/33/1
f 25/37/1 22/38/1 19/39/1
f 26/40/1 22/38/1 25/37/1
f 27/41/1 24/42/1 23/43/1
f 28/44/1 24/42/1 27/41/1
f 29/45/1 26/46/1 25/47/1
f 30/48/1 26/46/1 29/45/1
f 31/49/1 32/50/1 33/51/1
f 34/52/1 32/50/1 31/49/1
f 35/53/1 36/54/1 37/55/1
f 38/56/1 36/54/1 35/53/1
f 39/57/1 34/58/1 31/59/1
f 40/60/1 34/58/1 39/57/1
f 41/61/1 38/62/1 35/63/1
f 42/64/1 38/62/1 41/61/1
f 43/65/1 40/66/1 39/67/1
f 44/68/1 40/66/1 43/65/1
f 45/69/1 42/70/1 41/71/1
f 46/72/1 42/70/1 45/69/1
f 47/73/2 48/74/2 49/75/2
f 49/75/2 48/74/2 50/76/2
f 51/77/2 52/78/2 53/79/2
f 53/79/2 52/78/2 54/80/2
f 49/81/2 50/82/2 55/83/2
f 55/83/2 50/82/2 56/84/2
f 53/85/2 54/86/2 57/87/2
f 57/87/2 54/86/2 58/88/2
f 55/89/2 56/90/2 59/91/2
f 59/91/2 56/90/2 60/92/2
f 57/93/2 58/94/2 61/95/2
f 61/95/2 58/94/2 62/96/2
f 63/97/2 64/98/2 65/99/2
f 65/99/2 64/98/2 66/100/2
f 67/101/2 68/102/2 69/103/2
f 69/103/2 68/102/2 70/104/2
f 65/105/2 66/106/2 71/107/2
f 71/107/2 66/106/2 72/108/2
f 69/109/2 70/110/2 73/111/2
f 73/111/2 70/110/2 74/112/2
f 71/113/2 72/114/2 75/115/2
f 75/115/2 72/114/2 76/116/2
f 73/117/2 74/118/2 77/119/2
f 77/119/2 74/118/2 78/120/2
f 79/121/2 80/122/2 81/123/2
f 81/123/2 80/122/2 82/124/2
f 82/124/2 80/122/2 83/125/2
f 83/125/2 80/122/2 84/126/2
f 84/126/2 80/122/2 85/127/2
f 85/127/2 80/122/2 86/128/2
f 81/129/2 82/130/2 87/131/2
f 82/124/2 83/125/2 88/132/2
f 87/131/2 82/130/2 88/133/2
f 83/134/2 84/135/2 89/136/2
f 88/132/2 83/125/2 89/137/2
f 84/126/2 85/127/2 90/138/2
f 89/136/2 84/135/2 90/139/2
f 85/140/2 86/141/2 91/142/2
f 90/138/2 85/127/2 91/143/2
f 91/142/2 86/141/2 92/144/2
f 93/145/3 94/146/3 95/147/3
f 96/148/3 97/149/3 94/150/3
f 96/151/3 94/146/3 93/145/3
f 98/152/3 97/149/3 96/148/3
f 99/153/3 100/154/3 101/155/3
f 102/156/3 103/157/3 100/158/3
f 102/159/3 100/154/3 99/153/3
f 104/160/3 105/161/3 103/162/3
f 104/163/3 103/157/3 102/156/3
f 106/164/3 105/161/3 104/160/3
f 107/165/3 108/166/3 109/167/3
f 110/168/3 111/169/3 108/170/3
f 110/171/3 108/166/3 107/165/3
f 112/172/3 113/173/3 111/174/3
f 112/175/3 111/169/3 110/168/3
f 114/176/3 113/173/3 112/172/3
f 115/177/3 116/178/3 117/179/3
f 118/180/3 119/181/3 116/182/3
f 118/183/3 116/178/3 115/177/3
f 120/184/3 121/185/3 119/186/3
f 120/187/3 119/181/3 118/180/3
f 122/188/3 121/185/3 120/184/3
f 123/189/3 124/190/3 125/191/3
f 126/192/3 127/193/3 124/194/3
f 126/195/3 124/190/3 123/189/3
f 128/196/3 129/197/3 127/198/3
f 128/199/3 127/193/3 126/192/3
f 130/200/3 129/197/3 128/196/3
f 131/201/4 132/202/4 133/203/4
f 132/204/4 134/205/4 135/206/4
f 133/203/4 132/202/4 135/207/4
f 134/208/4 136/209/4 137/210/4
f 135/206/4 134/205/4 137/211/4
f 137/210/4 136/209/4 138/212/4
f 139/213/4 140/214/4 141/215/4
f 140/216/4 142/217/4 143/218/4
f 141/215/4 140/214/4 143/219/4
f 142/220/4 144/221/4 145/222/4
f 143/218/4 142/217/4 145/223/4
f 145/222/4 144/221/4 146/224/4
f 147/225/4 148/226/4 149/227/4
f 148/228/4 150/229/4 151/230/4
f 149/227/4 148/226/4 151/231/4
f 150/232/4 152/233/4 153/234/4
f 151/230/4 150/229/4 153/235/4
f 153/234/4 152/233/4 154/236/4
f 155/237/4 156/238/4 157/239/4
f 156/240/4 158/241/4 159/242/4
f 157/239/4 156/238/4 159/243/4
f 158/244/4 160/245/4 161/246/4
f 159/242/4 158/241/4 161/247/4
f 161/246/4 160/245/4 162/248/4
f 163/249/4 164/250/4 165/251/4
f 164/252/4 166/253/4 167/254/4
f 165/251/4 164/250/4 167/255/4
f 167/254/4 166/253/4 168/256/4
f 169/257/5 170/258/5 171/259/5
f 172/260/5 170/258/5 169/257/5
f 173/261/5 174/262/5 175/263/5
f 176/264/5 174/262/5 173/261/5
f 177/265/5 178/266/5 179/267/5
f 180/268/5 178/266/5 177/265/5
f 181/269/5 182/270/5 183/271/5
f 184/272/5 182/270/5 181/269/5
f 185/273/5 186/274/5 187/275/5
f 188/276/5 186/274/5 185/273/5
f 189/277/5 186/274/5 188/276/5
f 190/278/5 186/274/5 189/277/5
f 191/279/5 185/273/5 187/275/5
f 192/280/5 189/277/5 188/276/5
f 193/281/5 189/277/5 192/280/5
f 194/282/5 186/274/5 190/278/5
f 195/283/5 193/281/5 192/280/5
f 195/283/5 194/282/5 193/281/5
f 195/283/5 191/279/5 187/275/5
f 195/283/5 192/280/5 191/279/5
f 196/284/5 194/282/5 195/283/5
f 197/285/5 194/282/5 196/284/5
f 198/286/5 186/274/5 194/282/5
f 198/286/5 194/282/5 197/285/5
f 199/287/5 195/283/5 187/275/5
f 200/288/5 197/285/5 196/284/5
f 201/289/5 197/285/5 200/288/5
f 202/290/5 186/274/5 198/286/5
f 203/291/5 199/287/5 187/275/5
f 203/291/5 202/290/5 201/289/5
f 203/291/5 201/289/5 200/288/5
f 203/291/5 200/288/5 199/287/5
f 204/292/5 186/274/5 202/290/5
f 204/292/5 202/290/5 203/291/5
f 205/293/6 206/294/6 207/295/6
f 207/295/6 206/294/6 208/296/6
f 207/297/6 208/298/6 209/299/6
f 209/299/6 208/298/6 210/300/6
f 209/301/6 210/302/6 211/303/6
f 211/303/6 210/302/6 212/304/6
f 211/305/6 212/306/6 213/307/6
f 213/307/6 212/306/6 214/308/6
f 213/309/6 214/310/6 215/311/6
f 215/311/6 214/310/6 216/312/6
