# Blender v3.1.2 OBJ File: ''
# www.blender.org
mtllib coin_big.mtl
o coin_big
v -1.184555 0.592277 0.592278
v -1.184555 0.000000 -0.592277
v -1.184555 -0.000000 0.592277
v -1.184555 0.592278 -0.592277
v -1.184555 1.184555 1.184555
v -1.184555 0.592277 1.776832
v -1.184555 0.592278 -1.776832
v -1.184555 1.184555 -1.184555
v -1.184555 1.776832 1.776832
v -1.184555 1.776832 -1.776832
v -1.184555 2.961386 2.369110
v -1.184555 1.776832 2.369110
v -1.184555 2.961387 1.776833
v -1.184555 2.961387 -1.776832
v -1.184555 1.776833 -2.369109
v -1.184555 2.961387 -2.369109
v -1.184555 3.553664 1.184555
v -1.184555 3.553665 -1.184554
v -1.184555 4.145941 1.776833
v -1.184555 4.145942 0.592278
v -1.184555 4.145942 -0.592277
v -1.184555 4.145942 -1.776832
v -1.184555 4.738219 0.592278
v -1.184555 4.738219 -0.592277
v -0.592277 1.776832 0.592278
v -0.592277 1.184555 -1.184555
v -0.592277 1.184555 1.184555
v -0.592277 1.776832 -1.184555
v -0.592277 2.369110 -0.592277
v -0.592277 2.369110 -1.184554
v -0.592277 2.961387 0.000000
v -0.592277 2.961387 -0.592277
v -0.592277 3.553664 1.184555
v -0.592277 3.553664 0.592278
v -0.592277 3.553664 0.000001
v -0.592277 3.553665 -1.184554
v -0.000000 1.184555 1.184555
v -0.000000 1.184555 -1.184555
v -0.000000 1.776832 0.592278
v -0.000000 1.776832 -1.184555
v -0.000000 2.369110 -0.592277
v -0.000000 2.369110 -1.184554
v -0.000000 2.961387 0.000000
v -0.000000 2.961387 -0.592277
v -0.000000 3.553664 1.184555
v -0.000000 3.553664 0.592278
v -0.000000 3.553664 0.000001
v -0.000000 3.553665 -1.184554
v 0.592277 -0.000000 0.592277
v 0.592277 0.000000 -0.592277
v 0.592277 0.592277 0.592278
v 0.592277 0.592278 -0.592277
v 0.592277 0.592277 1.776832
v 0.592277 1.184555 1.184555
v 0.592277 0.592278 -1.776832
v 0.592277 1.184555 -1.184555
v 0.592277 1.776832 1.776832
v 0.592277 1.776832 -1.776832
v 0.592277 1.776832 2.369110
v 0.592277 2.961386 2.369110
v 0.592277 2.961387 1.776833
v 0.592277 1.776833 -2.369109
v 0.592277 2.961387 -1.776832
v 0.592277 2.961387 -2.369109
v 0.592277 3.553664 1.184555
v 0.592277 3.553665 -1.184554
v 0.592277 4.145941 1.776833
v 0.592277 4.145942 0.592278
v 0.592277 4.145942 -0.592277
v 0.592277 4.145942 -1.776832
v 0.592277 4.738219 0.592278
v 0.592277 4.738219 -0.592277
v 0.592277 1.776832 2.369110
v -1.184555 2.961386 2.369110
v -1.184555 1.776832 2.369110
v 0.592277 2.961386 2.369110
v 0.592277 0.592277 1.776832
v -1.184555 1.776832 1.776832
v -1.184555 0.592277 1.776832
v 0.592277 1.776832 1.776832
v 0.592277 2.961387 1.776833
v -1.184555 4.145941 1.776833
v -1.184555 2.961387 1.776833
v 0.592277 4.145941 1.776833
v 0.592277 -0.000000 0.592277
v -1.184555 0.592277 0.592278
v -1.184555 -0.000000 0.592277
v 0.592277 0.592277 0.592278
v 0.592277 4.145942 0.592278
v -1.184555 4.738219 0.592278
v -1.184555 4.145942 0.592278
v 0.592277 4.738219 0.592278
v -0.592277 1.184555 -1.184555
v -1.184555 3.553665 -1.184554
v -1.184555 1.184555 -1.184555
v -0.592277 1.776832 -1.184555
v -0.592277 2.369110 -1.184554
v -0.592277 3.553665 -1.184554
v 0.592277 1.184555 -1.184555
v -0.000000 1.776832 -1.184555
v -0.000000 1.184555 -1.184555
v -0.000000 3.553665 -1.184554
v -0.000000 2.369110 -1.184554
v 0.592277 3.553665 -1.184554
v -1.184555 1.184555 1.184555
v -1.184555 3.553664 1.184555
v -0.592277 1.184555 1.184555
v -0.592277 3.553664 1.184555
v -0.000000 1.184555 1.184555
v -0.000000 3.553664 1.184555
v 0.592277 1.184555 1.184555
v 0.592277 3.553664 1.184555
v -1.184555 0.000000 -0.592277
v -1.184555 0.592278 -0.592277
v 0.592277 0.000000 -0.592277
v 0.592277 0.592278 -0.592277
v -1.184555 4.145942 -0.592277
v -1.184555 4.738219 -0.592277
v 0.592277 4.145942 -0.592277
v 0.592277 4.738219 -0.592277
v -1.184555 0.592278 -1.776832
v -1.184555 1.776832 -1.776832
v 0.592277 0.592278 -1.776832
v 0.592277 1.776832 -1.776832
v -1.184555 2.961387 -1.776832
v -1.184555 4.145942 -1.776832
v 0.592277 2.961387 -1.776832
v 0.592277 4.145942 -1.776832
v -1.184555 1.776833 -2.369109
v -1.184555 2.961387 -2.369109
v 0.592277 1.776833 -2.369109
v 0.592277 2.961387 -2.369109
v -1.184555 0.000000 -0.592277
v 0.592277 -0.000000 0.592277
v -1.184555 -0.000000 0.592277
v 0.592277 0.000000 -0.592277
v -1.184555 0.592277 0.592278
v 0.592277 0.592277 1.776832
v -1.184555 0.592277 1.776832
v 0.592277 0.592277 0.592278
v -1.184555 0.592278 -1.776832
v 0.592277 0.592278 -0.592277
v -1.184555 0.592278 -0.592277
v 0.592277 0.592278 -1.776832
v -1.184555 1.776832 1.776832
v 0.592277 1.776832 2.369110
v -1.184555 1.776832 2.369110
v 0.592277 1.776832 1.776832
v -1.184555 1.776833 -2.369109
v 0.592277 1.776832 -1.776832
v -1.184555 1.776832 -1.776832
v 0.592277 1.776833 -2.369109
v -0.592277 3.553664 0.592278
v -0.592277 3.553664 1.184555
v -1.184555 3.553664 1.184555
v -0.000000 3.553664 0.592278
v 0.592277 3.553664 1.184555
v -0.000000 3.553664 1.184555
v -0.592277 3.553664 0.000001
v -0.000000 3.553664 0.000001
v -1.184555 3.553665 -1.184554
v -0.592277 3.553665 -1.184554
v -0.000000 3.553665 -1.184554
v 0.592277 3.553665 -1.184554
v -1.184555 1.184555 1.184555
v -0.592277 1.184555 1.184555
v -1.184555 1.184555 -1.184555
v -0.592277 1.184555 -1.184555
v -0.000000 1.184555 1.184555
v 0.592277 1.184555 1.184555
v -0.000000 1.184555 -1.184555
v 0.592277 1.184555 -1.184555
v -1.184555 2.961386 2.369110
v 0.592277 2.961386 2.369110
v -1.184555 2.961387 1.776833
v 0.592277 2.961387 1.776833
v -1.184555 2.961387 -1.776832
v 0.592277 2.961387 -1.776832
v -1.184555 2.961387 -2.369109
v 0.592277 2.961387 -2.369109
v -1.184555 4.145941 1.776833
v 0.592277 4.145941 1.776833
v -1.184555 4.145942 0.592278
v 0.592277 4.145942 0.592278
v -1.184555 4.145942 -0.592277
v 0.592277 4.145942 -0.592277
v -1.184555 4.145942 -1.776832
v 0.592277 4.145942 -1.776832
v -1.184555 4.738219 0.592278
v 0.592277 4.738219 0.592278
v -1.184555 4.738219 -0.592277
v 0.592277 4.738219 -0.592277
vt 0.041016 0.500000
vt 0.041016 0.500000
vt 0.041016 0.500000
vt 0.041016 0.500000
vt 0.041016 0.500000
vt 0.041016 0.500000
vt 0.041016 0.500000
vt 0.041016 0.500000
vt 0.041016 0.500000
vt 0.041016 0.500000
vt 0.041016 0.500000
vt 0.041016 0.500000
vt 0.041016 0.500000
vt 0.041016 0.500000
vt 0.041016 0.500000
vt 0.041016 0.500000
vt 0.041016 0.500000
vt 0.041016 0.500000
vt 0.041016 0.500000
vt 0.041016 0.500000
vt 0.041016 0.500000
vt 0.041016 0.500000
vt 0.041016 0.500000
vt 0.041016 0.500000
vt 0.044922 0.500000
vt 0.044922 0.500000
vt 0.044922 0.500000
vt 0.044922 0.500000
vt 0.041016 0.500000
vt 0.041016 0.500000
vt 0.041016 0.500000
vt 0.041016 0.500000
vt 0.041016 0.500000
vt 0.037109 0.500000
vt 0.037109 0.500000
vt 0.037109 0.500000
vt 0.041016 0.500000
vt 0.044922 0.500000
vt 0.041016 0.500000
vt 0.044922 0.500000
vt 0.037109 0.500000
vt 0.037109 0.500000
vt 0.041016 0.500000
vt 0.037109 0.500000
vt 0.044922 0.500000
vt 0.044922 0.500000
vt 0.044922 0.500000
vt 0.044922 0.500000
vt 0.041016 0.500000
vt 0.041016 0.500000
vt 0.041016 0.500000
vt 0.041016 0.500000
vt 0.041016 0.500000
vt 0.037109 0.500000
vt 0.037109 0.500000
vt 0.037109 0.500000
vt 0.041016 0.500000
vt 0.044922 0.500000
vt 0.041016 0.500000
vt 0.044922 0.500000
vt 0.037109 0.500000
vt 0.037109 0.500000
vt 0.041016 0.500000
vt 0.037109 0.500000
vt 0.041016 0.500000
vt 0.041016 0.500000
vt 0.041016 0.500000
vt 0.041016 0.500000
vt 0.041016 0.500000
vt 0.041016 0.500000
vt 0.041016 0.500000
vt 0.041016 0.500000
vt 0.041016 0.500000
vt 0.041016 0.500000
vt 0.041016 0.500000
vt 0.041016 0.500000
vt 0.041016 0.500000
vt 0.041016 0.500000
vt 0.041016 0.500000
vt 0.041016 0.500000
vt 0.041016 0.500000
vt 0.041016 0.500000
vt 0.041016 0.500000
vt 0.041016 0.500000
vt 0.041016 0.500000
vt 0.041016 0.500000
vt 0.041016 0.500000
vt 0.041016 0.500000
vt 0.041016 0.500000
vt 0.041016 0.500000
vt 0.041016 0.500000
vt 0.041016 0.500000
vt 0.041016 0.500000
vt 0.041016 0.500000
vt 0.041016 0.500000
vt 0.041016 0.500000
vt 0.041016 0.500000
vt 0.041016 0.500000
vt 0.041016 0.500000
vt 0.041016 0.500000
vt 0.041016 0.500000
vt 0.041016 0.500000
vt 0.041016 0.500000
vt 0.041016 0.500000
vt 0.041016 0.500000
vt 0.041016 0.500000
vt 0.041016 0.500000
vt 0.041016 0.500000
vt 0.041016 0.500000
vt 0.041016 0.500000
vt 0.041016 0.500000
vt 0.041016 0.500000
vt 0.041016 0.500000
vt 0.041016 0.500000
vt 0.041016 0.500000
vt 0.041016 0.500000
vt 0.041016 0.500000
vt 0.041016 0.500000
vt 0.041016 0.500000
vt 0.041016 0.500000
vt 0.041016 0.500000
vt 0.041016 0.500000
vt 0.041016 0.500000
vt 0.041016 0.500000
vt 0.041016 0.500000
vt 0.041016 0.500000
vt 0.041016 0.500000
vt 0.041016 0.500000
vt 0.041016 0.500000
vt 0.041016 0.500000
vt 0.041016 0.500000
vt 0.041016 0.500000
vt 0.041016 0.500000
vt 0.041016 0.500000
vt 0.041016 0.500000
vt 0.041016 0.500000
vt 0.041016 0.500000
vt 0.041016 0.500000
vt 0.041016 0.500000
vt 0.041016 0.500000
vt 0.041016 0.500000
vt 0.041016 0.500000
vt 0.041016 0.500000
vt 0.041016 0.500000
vt 0.041016 0.500000
vt 0.041016 0.500000
vt 0.041016 0.500000
vt 0.041016 0.500000
vt 0.041016 0.500000
vt 0.041016 0.500000
vt 0.041016 0.500000
vt 0.041016 0.500000
vt 0.041016 0.500000
vt 0.041016 0.500000
vt 0.041016 0.500000
vt 0.041016 0.500000
vt 0.041016 0.500000
vt 0.041016 0.500000
vt 0.041016 0.500000
vt 0.041016 0.500000
vt 0.041016 0.500000
vt 0.041016 0.500000
vt 0.041016 0.500000
vt 0.041016 0.500000
vt 0.041016 0.500000
vt 0.041016 0.500000
vt 0.041016 0.500000
vt 0.041016 0.500000
vt 0.041016 0.500000
vt 0.041016 0.500000
vt 0.041016 0.500000
vt 0.041016 0.500000
vt 0.041016 0.500000
vt 0.041016 0.500000
vt 0.041016 0.500000
vt 0.041016 0.500000
vt 0.041016 0.500000
vt 0.041016 0.500000
vt 0.041016 0.500000
vt 0.041016 0.500000
vt 0.041016 0.500000
vt 0.041016 0.500000
vt 0.041016 0.500000
vt 0.041016 0.500000
vt 0.041016 0.500000
vt 0.041016 0.500000
vt 0.041016 0.500000
vt 0.041016 0.500000
vt 0.041016 0.500000
vt 0.041016 0.500000
vt 0.041016 0.500000
vt 0.041016 0.500000
vt 0.041016 0.500000
vt 0.041016 0.500000
vt 0.041016 0.500000
vt 0.041016 0.500000
vt 0.041016 0.500000
vt 0.041016 0.500000
vt 0.041016 0.500000
vt 0.041016 0.500000
vt 0.041016 0.500000
vt 0.041016 0.500000
vt 0.041016 0.500000
vt 0.041016 0.500000
vt 0.041016 0.500000
vt 0.041016 0.500000
vt 0.041016 0.500000
vt 0.041016 0.500000
vn -1.0000 -0.0000 0.0000
vn 1.0000 0.0000 0.0000
vn 0.0000 -0.0000 1.0000
vn 0.0000 0.0000 -1.0000
vn 0.0000 -1.0000 -0.0000
vn 0.0000 1.0000 0.0000
usemtl palette.035
s 1
f 1/1/1 2/2/1 3/3/1
f 4/4/1 2/2/1 1/1/1
f 5/5/1 1/1/1 6/6/1
f 5/5/1 7/7/1 4/4/1
f 5/5/1 4/4/1 1/1/1
f 8/8/1 7/7/1 5/5/1
f 9/9/1 5/5/1 6/6/1
f 10/10/1 7/7/1 8/8/1
f 11/11/1 9/9/1 12/12/1
f 13/13/1 5/5/1 9/9/1
f 13/13/1 9/9/1 11/11/1
f 14/14/1 15/15/1 10/10/1
f 14/14/1 10/10/1 8/8/1
f 16/16/1 15/15/1 14/14/1
f 17/17/1 5/5/1 13/13/1
f 18/18/1 14/14/1 8/8/1
f 19/19/1 17/17/1 13/13/1
f 19/19/1 18/18/1 17/17/1
f 20/20/1 18/18/1 19/19/1
f 21/21/1 18/18/1 20/20/1
f 22/22/1 14/14/1 18/18/1
f 22/22/1 18/18/1 21/21/1
f 23/23/1 21/21/1 20/20/1
f 24/24/1 21/21/1 23/23/1
f 25/25/1 26/26/1 27/27/1
f 28/28/1 26/26/1 25/25/1
f 29/29/1 28/30/1 25/31/1
f 30/32/1 28/30/1 29/29/1
f 31/33/1 29/29/1 25/31/1
f 32/34/1 30/35/1 29/36/1
f 32/37/1 29/29/1 31/33/1
f 33/38/1 25/25/1 27/27/1
f 34/39/1 31/33/1 25/31/1
f 34/40/1 25/25/1 33/38/1
f 35/41/1 32/34/1 31/42/1
f 35/43/1 31/33/1 34/39/1
f 36/44/1 30/35/1 32/34/1
f 36/44/1 32/34/1 35/41/1
f 37/45/2 38/46/2 39/47/2
f 39/47/2 38/46/2 40/48/2
f 39/49/2 40/50/2 41/51/2
f 41/51/2 40/50/2 42/52/2
f 39/49/2 41/51/2 43/53/2
f 41/54/2 42/55/2 44/56/2
f 43/53/2 41/51/2 44/57/2
f 37/45/2 39/47/2 45/58/2
f 39/49/2 43/53/2 46/59/2
f 45/58/2 39/47/2 46/60/2
f 43/61/2 44/56/2 47/62/2
f 46/59/2 43/53/2 47/63/2
f 44/56/2 42/55/2 48/64/2
f 47/62/2 44/56/2 48/64/2
f 49/65/2 50/66/2 51/67/2
f 51/67/2 50/66/2 52/68/2
f 53/69/2 51/67/2 54/70/2
f 52/68/2 55/71/2 54/70/2
f 51/67/2 52/68/2 54/70/2
f 54/70/2 55/71/2 56/72/2
f 53/69/2 54/70/2 57/73/2
f 56/72/2 55/71/2 58/74/2
f 59/75/2 57/73/2 60/76/2
f 57/73/2 54/70/2 61/77/2
f 60/76/2 57/73/2 61/77/2
f 58/74/2 62/78/2 63/79/2
f 56/72/2 58/74/2 63/79/2
f 63/79/2 62/78/2 64/80/2
f 61/77/2 54/70/2 65/81/2
f 56/72/2 63/79/2 66/82/2
f 61/77/2 65/81/2 67/83/2
f 65/81/2 66/82/2 67/83/2
f 67/83/2 66/82/2 68/84/2
f 68/84/2 66/82/2 69/85/2
f 66/82/2 63/79/2 70/86/2
f 69/85/2 66/82/2 70/86/2
f 68/84/2 69/85/2 71/87/2
f 71/87/2 69/85/2 72/88/2
f 73/89/3 74/90/3 75/91/3
f 76/92/3 74/90/3 73/89/3
f 77/93/3 78/94/3 79/95/3
f 80/96/3 78/94/3 77/93/3
f 81/97/3 82/98/3 83/99/3
f 84/100/3 82/98/3 81/97/3
f 85/101/3 86/102/3 87/103/3
f 88/104/3 86/102/3 85/101/3
f 89/105/3 90/106/3 91/107/3
f 92/108/3 90/106/3 89/105/3
f 93/109/3 94/110/3 95/111/3
f 96/112/3 94/110/3 93/109/3
f 97/113/3 94/110/3 96/112/3
f 98/114/3 94/110/3 97/113/3
f 99/115/3 100/116/3 101/117/3
f 99/115/3 102/118/3 103/119/3
f 99/115/3 103/119/3 100/116/3
f 104/120/3 102/118/3 99/115/3
f 105/121/4 106/122/4 107/123/4
f 107/123/4 106/122/4 108/124/4
f 109/125/4 110/126/4 111/127/4
f 111/127/4 110/126/4 112/128/4
f 113/129/4 114/130/4 115/131/4
f 115/131/4 114/130/4 116/132/4
f 117/133/4 118/134/4 119/135/4
f 119/135/4 118/134/4 120/136/4
f 121/137/4 122/138/4 123/139/4
f 123/139/4 122/138/4 124/140/4
f 125/141/4 126/142/4 127/143/4
f 127/143/4 126/142/4 128/144/4
f 129/145/4 130/146/4 131/147/4
f 131/147/4 130/146/4 132/148/4
f 133/149/5 134/150/5 135/151/5
f 136/152/5 134/150/5 133/149/5
f 137/153/5 138/154/5 139/155/5
f 140/156/5 138/154/5 137/153/5
f 141/157/5 142/158/5 143/159/5
f 144/160/5 142/158/5 141/157/5
f 145/161/5 146/162/5 147/163/5
f 148/164/5 146/162/5 145/161/5
f 149/165/5 150/166/5 151/167/5
f 152/168/5 150/166/5 149/165/5
f 153/169/5 154/170/5 155/171/5
f 156/172/5 157/173/5 158/174/5
f 159/175/5 153/169/5 155/171/5
f 160/176/5 157/173/5 156/172/5
f 161/177/5 159/175/5 155/171/5
f 162/178/5 159/175/5 161/177/5
f 163/179/5 157/173/5 160/176/5
f 164/180/5 157/173/5 163/179/5
f 165/181/6 166/182/6 167/183/6
f 167/183/6 166/182/6 168/184/6
f 169/185/6 170/186/6 171/187/6
f 171/187/6 170/186/6 172/188/6
f 173/189/6 174/190/6 175/191/6
f 175/191/6 174/190/6 176/192/6
f 177/193/6 178/194/6 179/195/6
f 179/195/6 178/194/6 180/196/6
f 181/197/6 182/198/6 183/199/6
f 183/199/6 182/198/6 184/200/6
f 185/201/6 186/202/6 187/203/6
f 187/203/6 186/202/6 188/204/6
f 189/205/6 190/206/6 191/207/6
f 191/207/6 190/206/6 192/208/6
