# Blender v3.1.2 OBJ File: ''
# www.blender.org
mtllib tile_flat.mtl
o tile_flat
v -3.038957 0.759739 2.659087
v -3.038957 0.000000 -3.038957
v -3.038957 -0.000000 3.038957
v -3.038957 0.759739 2.279218
v -3.038957 0.759739 1.519479
v -3.038957 0.759739 1.139609
v -3.038957 0.759739 0.759739
v -3.038957 0.759739 0.000000
v -3.038957 0.759739 -0.379869
v -3.038957 0.759739 -0.759739
v -3.038957 0.759739 -1.519478
v -3.038957 0.759740 -1.899348
v -3.038957 0.759740 -2.279217
v -3.038957 0.759740 -3.038957
v -3.038957 1.139608 3.038957
v -3.038957 1.139608 2.659087
v -3.038957 1.139609 2.279218
v -3.038957 1.139609 1.519479
v -3.038957 1.139609 1.139609
v -3.038957 1.139609 0.759739
v -3.038957 1.139609 0.000000
v -3.038957 1.139609 -0.379869
v -3.038957 1.139609 -0.759739
v -3.038957 1.139609 -1.519478
v -3.038957 1.139609 -1.899348
v -3.038957 1.139609 -2.279217
v -3.038957 1.139609 -3.038957
v 3.038957 -0.000000 3.038957
v 3.038957 0.000000 -3.038957
v 3.038957 0.759739 3.038957
v 3.038957 0.759739 2.659087
v 3.038957 0.759739 1.139609
v 3.038957 0.759739 0.379870
v 3.038957 0.759739 0.000000
v 3.038957 0.759739 -0.379869
v 3.038957 0.759740 -1.899348
v 3.038957 0.759740 -2.659087
v 3.038957 0.759740 -3.038957
v 3.038957 1.139608 3.038957
v 3.038957 1.139608 2.659087
v 3.038957 1.139609 1.139609
v 3.038957 1.139609 0.379870
v 3.038957 1.139609 0.000000
v 3.038957 1.139609 -0.379869
v 3.038957 1.139609 -1.899348
v 3.038957 1.139609 -2.659087
v 3.038957 1.139609 -3.038957
v -0.379870 0.759739 3.038957
v -3.038957 1.139608 3.038957
v -3.038957 -0.000000 3.038957
v -0.379870 1.139608 3.038957
v -0.000000 0.759739 3.038957
v -0.000000 1.139608 3.038957
v 2.659087 0.759739 3.038957
v 2.659087 1.139608 3.038957
v 3.038957 -0.000000 3.038957
v 3.038957 0.759739 3.038957
v 3.038957 1.139608 3.038957
v -3.038957 0.000000 -3.038957
v -3.038957 0.759740 -3.038957
v -1.519478 0.759740 -3.038957
v -3.038957 1.139609 -3.038957
v -1.519478 1.139609 -3.038957
v -1.139609 0.759740 -3.038957
v -1.139609 1.139609 -3.038957
v 1.519478 0.759740 -3.038957
v 1.519478 1.139609 -3.038957
v 1.899348 0.759740 -3.038957
v 1.899348 1.139609 -3.038957
v 3.038957 0.000000 -3.038957
v 3.038957 0.759740 -3.038957
v 3.038957 1.139609 -3.038957
v -3.038957 0.000000 -3.038957
v 3.038957 -0.000000 3.038957
v -3.038957 -0.000000 3.038957
v 3.038957 0.000000 -3.038957
v -3.038957 1.139608 3.038957
v -0.379870 1.139608 3.038957
v -3.038957 1.139608 2.659087
v -0.000000 1.139608 3.038957
v -0.379870 1.139608 2.659087
v 2.659087 1.139608 3.038957
v -0.000000 1.139608 2.659087
v 3.038957 1.139608 3.038957
v 2.659087 1.139608 2.659087
v 3.038957 1.139608 2.659087
v -3.038957 1.139609 2.279218
v -2.659087 1.139609 2.279218
v -0.000000 1.139609 2.279218
v 0.379870 1.139609 2.279218
v -2.659087 1.139609 1.899348
v -0.379870 1.139609 1.899348
v 0.379870 1.139609 1.899348
v 2.659087 1.139609 1.899348
v -3.038957 1.139609 1.519479
v -2.279218 1.139609 1.519479
v -1.899348 1.139609 1.519479
v -0.379870 1.139609 1.519479
v -0.000000 1.139609 1.519479
v 0.759739 1.139609 1.519479
v 1.139609 1.139609 1.519479
v 2.659087 1.139609 1.519479
v -3.038957 1.139609 1.139609
v -2.279218 1.139609 1.139609
v -1.899348 1.139609 1.139609
v 0.759739 1.139609 1.139609
v 1.139609 1.139609 1.139609
v 3.038957 1.139609 1.139609
v -3.038957 1.139609 0.759739
v -2.659087 1.139609 0.759739
v -1.899348 1.139609 0.759739
v -1.519478 1.139609 0.759739
v 1.139609 1.139609 0.759739
v 1.519478 1.139609 0.759739
v -2.659087 1.139609 0.379870
v -2.279218 1.139609 0.379870
v -1.519478 1.139609 0.379870
v 0.759739 1.139609 0.379870
v 1.519478 1.139609 0.379870
v 3.038957 1.139609 0.379870
v -3.038957 1.139609 0.000000
v -2.279218 1.139609 0.000000
v -1.899348 1.139609 0.000000
v -0.379870 1.139609 0.000000
v -0.000000 1.139609 0.000000
v 0.759739 1.139609 0.000000
v 1.139609 1.139609 0.000000
v 2.659087 1.139609 0.000000
v 3.038957 1.139609 0.000000
v -3.038957 1.139609 -0.379869
v -0.379870 1.139609 -0.379869
v -0.000000 1.139609 -0.379869
v 2.659087 1.139609 -0.379869
v 3.038957 1.139609 -0.379869
v -3.038957 1.139609 -0.759739
v -2.659087 1.139609 -0.759739
v -0.000000 1.139609 -0.759739
v 0.379870 1.139609 -0.759739
v -2.659087 1.139609 -1.139609
v -0.379870 1.139609 -1.139609
v 0.379870 1.139609 -1.139609
v 2.659087 1.139609 -1.139609
v -3.038957 1.139609 -1.519478
v -1.519478 1.139609 -1.519478
v -1.139609 1.139609 -1.519478
v -0.379870 1.139609 -1.519478
v -0.000000 1.139609 -1.519478
v 1.519478 1.139609 -1.519478
v 1.899348 1.139609 -1.519478
v 2.659087 1.139609 -1.519478
v -3.038957 1.139609 -1.899348
v -1.519478 1.139609 -1.899348
v -1.139609 1.139609 -1.899348
v 1.519478 1.139609 -1.899348
v 1.899348 1.139609 -1.899348
v 3.038957 1.139609 -1.899348
v -3.038957 1.139609 -2.279217
v -2.659087 1.139609 -2.279217
v -1.139609 1.139609 -2.279217
v -0.759739 1.139609 -2.279217
v 1.899348 1.139609 -2.279217
v 2.279218 1.139609 -2.279217
v -2.659087 1.139609 -2.659087
v -1.519478 1.139609 -2.659087
v -0.759739 1.139609 -2.659087
v 1.519478 1.139609 -2.659087
v 2.279218 1.139609 -2.659087
v 3.038957 1.139609 -2.659087
v -3.038957 1.139609 -3.038957
v -1.519478 1.139609 -3.038957
v -1.139609 1.139609 -3.038957
v 1.519478 1.139609 -3.038957
v 1.899348 1.139609 -3.038957
v 3.038957 1.139609 -3.038957
vt 0.001953 0.500000
vt 0.001953 0.500000
vt 0.001953 0.500000
vt 0.001953 0.500000
vt 0.001953 0.500000
vt 0.001953 0.500000
vt 0.001953 0.500000
vt 0.001953 0.500000
vt 0.001953 0.500000
vt 0.001953 0.500000
vt 0.001953 0.500000
vt 0.001953 0.500000
vt 0.001953 0.500000
vt 0.001953 0.500000
vt 0.001953 0.500000
vt 0.123047 0.500000
vt 0.123047 0.500000
vt 0.123047 0.500000
vt 0.001953 0.500000
vt 0.044922 0.500000
vt 0.044922 0.500000
vt 0.044922 0.500000
vt 0.123047 0.500000
vt 0.001953 0.500000
vt 0.044922 0.500000
vt 0.123047 0.500000
vt 0.123047 0.500000
vt 0.123047 0.500000
vt 0.001953 0.500000
vt 0.044922 0.500000
vt 0.044922 0.500000
vt 0.044922 0.500000
vt 0.123047 0.500000
vt 0.001953 0.500000
vt 0.044922 0.500000
vt 0.123047 0.500000
vt 0.123047 0.500000
vt 0.123047 0.500000
vt 0.001953 0.500000
vt 0.044922 0.500000
vt 0.044922 0.500000
vt 0.044922 0.500000
vt 0.123047 0.500000
vt 0.001953 0.500000
vt 0.044922 0.500000
vt 0.123047 0.500000
vt 0.123047 0.500000
vt 0.123047 0.500000
vt 0.001953 0.500000
vt 0.044922 0.500000
vt 0.044922 0.500000
vt 0.044922 0.500000
vt 0.123047 0.500000
vt 0.044922 0.500000
vt 0.001953 0.500000
vt 0.001953 0.500000
vt 0.001953 0.500000
vt 0.001953 0.500000
vt 0.001953 0.500000
vt 0.001953 0.500000
vt 0.001953 0.500000
vt 0.001953 0.500000
vt 0.001953 0.500000
vt 0.001953 0.500000
vt 0.001953 0.500000
vt 0.142578 0.500000
vt 0.142578 0.500000
vt 0.142578 0.500000
vt 0.001953 0.500000
vt 0.142578 0.500000
vt 0.123047 0.500000
vt 0.123047 0.500000
vt 0.123047 0.500000
vt 0.001953 0.500000
vt 0.044922 0.500000
vt 0.044922 0.500000
vt 0.044922 0.500000
vt 0.123047 0.500000
vt 0.142578 0.500000
vt 0.142578 0.500000
vt 0.142578 0.500000
vt 0.044922 0.500000
vt 0.001953 0.500000
vt 0.142578 0.500000
vt 0.123047 0.500000
vt 0.123047 0.500000
vt 0.123047 0.500000
vt 0.001953 0.500000
vt 0.044922 0.500000
vt 0.044922 0.500000
vt 0.044922 0.500000
vt 0.123047 0.500000
vt 0.044922 0.500000
vt 0.001953 0.500000
vt 0.001953 0.500000
vt 0.001953 0.500000
vt 0.001953 0.500000
vt 0.001953 0.500000
vt 0.142578 0.500000
vt 0.142578 0.500000
vt 0.142578 0.500000
vt 0.142578 0.500000
vt 0.001953 0.500000
vt 0.001953 0.500000
vt 0.001953 0.500000
vt 0.001953 0.500000
vt 0.142578 0.500000
vt 0.142578 0.500000
vt 0.142578 0.500000
vt 0.001953 0.500000
vt 0.142578 0.500000
vt 0.001953 0.500000
vt 0.001953 0.500000
vt 0.001953 0.500000
vt 0.044922 0.500000
vt 0.044922 0.500000
vt 0.044922 0.500000
vt 0.044922 0.500000
vt 0.001953 0.500000
vt 0.001953 0.500000
vt 0.001953 0.500000
vt 0.001953 0.500000
vt 0.044922 0.500000
vt 0.044922 0.500000
vt 0.044922 0.500000
vt 0.044922 0.500000
vt 0.001953 0.500000
vt 0.001953 0.500000
vt 0.001953 0.500000
vt 0.001953 0.500000
vt 0.044922 0.500000
vt 0.044922 0.500000
vt 0.044922 0.500000
vt 0.001953 0.500000
vt 0.044922 0.500000
vt 0.001953 0.500000
vt 0.001953 0.500000
vt 0.001953 0.500000
vt 0.001953 0.500000
vt 0.001953 0.500000
vt 0.001953 0.500000
vt 0.001953 0.500000
vt 0.142578 0.500000
vt 0.142578 0.500000
vt 0.142578 0.500000
vt 0.001953 0.500000
vt 0.001953 0.500000
vt 0.001953 0.500000
vt 0.001953 0.500000
vt 0.142578 0.500000
vt 0.142578 0.500000
vt 0.142578 0.500000
vt 0.142578 0.500000
vt 0.001953 0.500000
vt 0.142578 0.500000
vt 0.123047 0.500000
vt 0.123047 0.500000
vt 0.123047 0.500000
vt 0.123047 0.500000
vt 0.001953 0.500000
vt 0.123047 0.500000
vt 0.123047 0.500000
vt 0.123047 0.500000
vt 0.123047 0.500000
vt 0.123047 0.500000
vt 0.044922 0.500000
vt 0.044922 0.500000
vt 0.044922 0.500000
vt 0.001953 0.500000
vt 0.123047 0.500000
vt 0.123047 0.500000
vt 0.044922 0.500000
vt 0.044922 0.500000
vt 0.044922 0.500000
vt 0.001953 0.500000
vt 0.001953 0.500000
vt 0.123047 0.500000
vt 0.044922 0.500000
vt 0.044922 0.500000
vt 0.044922 0.500000
vt 0.044922 0.500000
vt 0.001953 0.500000
vt 0.044922 0.500000
vt 0.044922 0.500000
vt 0.001953 0.500000
vt 0.044922 0.500000
vt 0.044922 0.500000
vt 0.044922 0.500000
vt 0.001953 0.500000
vt 0.044922 0.500000
vt 0.001953 0.500000
vt 0.001953 0.500000
vt 0.001953 0.500000
vt 0.142578 0.500000
vt 0.142578 0.500000
vt 0.142578 0.500000
vt 0.001953 0.500000
vt 0.001953 0.500000
vt 0.001953 0.500000
vt 0.142578 0.500000
vt 0.001953 0.500000
vt 0.142578 0.500000
vt 0.142578 0.500000
vt 0.142578 0.500000
vt 0.001953 0.500000
vt 0.001953 0.500000
vt 0.001953 0.500000
vt 0.142578 0.500000
vt 0.001953 0.500000
vt 0.123047 0.500000
vt 0.123047 0.500000
vt 0.123047 0.500000
vt 0.123047 0.500000
vt 0.001953 0.500000
vt 0.123047 0.500000
vt 0.123047 0.500000
vt 0.123047 0.500000
vt 0.123047 0.500000
vt 0.001953 0.500000
vt 0.123047 0.500000
vt 0.123047 0.500000
vt 0.123047 0.500000
vt 0.123047 0.500000
vt 0.123047 0.500000
vt 0.044922 0.500000
vt 0.044922 0.500000
vt 0.044922 0.500000
vt 0.001953 0.500000
vt 0.123047 0.500000
vt 0.123047 0.500000
vt 0.044922 0.500000
vt 0.044922 0.500000
vt 0.044922 0.500000
vt 0.001953 0.500000
vt 0.123047 0.500000
vt 0.123047 0.500000
vt 0.044922 0.500000
vt 0.044922 0.500000
vt 0.044922 0.500000
vt 0.123047 0.500000
vt 0.044922 0.500000
vt 0.044922 0.500000
vt 0.001953 0.500000
vt 0.044922 0.500000
vt 0.044922 0.500000
vt 0.044922 0.500000
vt 0.001953 0.500000
vt 0.044922 0.500000
vt 0.044922 0.500000
vt 0.001953 0.500000
vt 0.044922 0.500000
vt 0.044922 0.500000
vt 0.044922 0.500000
vt 0.001953 0.500000
vt 0.044922 0.500000
vt 0.044922 0.500000
vt 0.001953 0.500000
vt 0.001953 0.500000
vt 0.001953 0.500000
vt 0.142578 0.500000
vt 0.142578 0.500000
vt 0.142578 0.500000
vt 0.001953 0.500000
vt 0.001953 0.500000
vt 0.001953 0.500000
vt 0.142578 0.500000
vt 0.001953 0.500000
vt 0.142578 0.500000
vt 0.142578 0.500000
vt 0.142578 0.500000
vt 0.001953 0.500000
vt 0.142578 0.500000
vt 0.123047 0.500000
vt 0.123047 0.500000
vt 0.123047 0.500000
vt 0.123047 0.500000
vt 0.001953 0.500000
vt 0.123047 0.500000
vt 0.123047 0.500000
vt 0.123047 0.500000
vt 0.123047 0.500000
vt 0.123047 0.500000
vt 0.044922 0.500000
vt 0.044922 0.500000
vt 0.044922 0.500000
vt 0.001953 0.500000
vt 0.123047 0.500000
vt 0.123047 0.500000
vt 0.044922 0.500000
vt 0.044922 0.500000
vt 0.044922 0.500000
vt 0.001953 0.500000
vt 0.001953 0.500000
vt 0.123047 0.500000
vt 0.044922 0.500000
vt 0.044922 0.500000
vt 0.044922 0.500000
vt 0.044922 0.500000
vt 0.001953 0.500000
vt 0.044922 0.500000
vt 0.044922 0.500000
vt 0.001953 0.500000
vt 0.044922 0.500000
vt 0.044922 0.500000
vt 0.044922 0.500000
vt 0.001953 0.500000
vt 0.044922 0.500000
vt 0.001953 0.500000
vt 0.001953 0.500000
vt 0.001953 0.500000
vt 0.142578 0.500000
vt 0.142578 0.500000
vt 0.142578 0.500000
vt 0.001953 0.500000
vt 0.001953 0.500000
vt 0.001953 0.500000
vt 0.142578 0.500000
vt 0.001953 0.500000
vt 0.142578 0.500000
vt 0.142578 0.500000
vt 0.142578 0.500000
vt 0.001953 0.500000
vt 0.001953 0.500000
vt 0.001953 0.500000
vt 0.142578 0.500000
vt 0.001953 0.500000
vt 0.123047 0.500000
vt 0.123047 0.500000
vt 0.123047 0.500000
vt 0.123047 0.500000
vt 0.001953 0.500000
vt 0.123047 0.500000
vt 0.123047 0.500000
vt 0.123047 0.500000
vt 0.123047 0.500000
vt 0.001953 0.500000
vt 0.123047 0.500000
vt 0.123047 0.500000
vt 0.123047 0.500000
vt 0.123047 0.500000
vt 0.123047 0.500000
vt 0.044922 0.500000
vt 0.044922 0.500000
vt 0.044922 0.500000
vt 0.001953 0.500000
vt 0.123047 0.500000
vt 0.123047 0.500000
vt 0.044922 0.500000
vt 0.044922 0.500000
vt 0.044922 0.500000
vt 0.001953 0.500000
vt 0.123047 0.500000
vt 0.123047 0.500000
vt 0.044922 0.500000
vt 0.044922 0.500000
vt 0.044922 0.500000
vt 0.123047 0.500000
vt 0.044922 0.500000
vt 0.044922 0.500000
vt 0.001953 0.500000
vt 0.044922 0.500000
vt 0.044922 0.500000
vt 0.044922 0.500000
vt 0.001953 0.500000
vt 0.001953 0.500000
vt 0.044922 0.500000
vt 0.044922 0.500000
vt 0.044922 0.500000
vt 0.001953 0.500000
vt 0.044922 0.500000
vn -1.0000 0.0000 0.0000
vn 1.0000 -0.0000 0.0000
vn 0.0000 -0.0000 1.0000
vn 0.0000 0.0000 -1.0000
vn 0.0000 -1.0000 -0.0000
vn 0.0000 1.0000 0.0000
usemtl palette.005
s 1
f 1/1/1 2/2/1 3/3/1
f 4/4/1 2/2/1 1/1/1
f 5/5/1 2/2/1 4/4/1
f 6/6/1 2/2/1 5/5/1
f 7/7/1 2/2/1 6/6/1
f 8/8/1 2/2/1 7/7/1
f 9/9/1 2/2/1 8/8/1
f 10/10/1 2/2/1 9/9/1
f 11/11/1 2/2/1 10/10/1
f 12/12/1 2/2/1 11/11/1
f 13/13/1 2/2/1 12/12/1
f 14/14/1 2/2/1 13/13/1
f 15/15/1 1/1/1 3/3/1
f 16/16/1 4/17/1 1/18/1
f 16/19/1 1/1/1 15/15/1
f 17/20/1 5/21/1 4/22/1
f 17/23/1 4/17/1 16/16/1
f 18/24/1 6/6/1 5/5/1
f 18/25/1 5/21/1 17/20/1
f 19/26/1 7/27/1 6/28/1
f 19/29/1 6/6/1 18/24/1
f 20/30/1 8/31/1 7/32/1
f 20/33/1 7/27/1 19/26/1
f 21/34/1 9/9/1 8/8/1
f 21/35/1 8/31/1 20/30/1
f 22/36/1 10/37/1 9/38/1
f 22/39/1 9/9/1 21/34/1
f 23/40/1 11/41/1 10/42/1
f 23/43/1 10/37/1 22/36/1
f 24/44/1 12/12/1 11/11/1
f 24/45/1 11/41/1 23/40/1
f 25/46/1 13/47/1 12/48/1
f 25/49/1 12/12/1 24/44/1
f 26/50/1 14/51/1 13/52/1
f 26/53/1 13/47/1 25/46/1
f 27/54/1 14/51/1 26/50/1
f 28/55/2 29/56/2 30/57/2
f 30/57/2 29/56/2 31/58/2
f 31/58/2 29/56/2 32/59/2
f 32/59/2 29/56/2 33/60/2
f 33/60/2 29/56/2 34/61/2
f 34/61/2 29/56/2 35/62/2
f 35/62/2 29/56/2 36/63/2
f 36/63/2 29/56/2 37/64/2
f 37/64/2 29/56/2 38/65/2
f 30/66/2 31/67/2 39/68/2
f 31/58/2 32/59/2 40/69/2
f 39/68/2 31/67/2 40/70/2
f 32/71/2 33/72/2 41/73/2
f 40/69/2 32/59/2 41/74/2
f 33/75/2 34/76/2 42/77/2
f 41/73/2 33/72/2 42/78/2
f 34/79/2 35/80/2 43/81/2
f 42/77/2 34/76/2 43/82/2
f 35/62/2 36/63/2 44/83/2
f 43/81/2 35/80/2 44/84/2
f 36/85/2 37/86/2 45/87/2
f 44/83/2 36/63/2 45/88/2
f 37/89/2 38/90/2 46/91/2
f 45/87/2 37/86/2 46/92/2
f 46/91/2 38/90/2 47/93/2
f 48/94/3 49/95/3 50/96/3
f 51/97/3 49/95/3 48/94/3
f 52/98/3 48/94/3 50/96/3
f 52/99/3 51/100/3 48/101/3
f 53/102/3 51/100/3 52/99/3
f 54/103/3 52/98/3 50/96/3
f 54/103/3 53/104/3 52/98/3
f 55/105/3 53/104/3 54/103/3
f 56/106/3 54/103/3 50/96/3
f 57/107/3 55/108/3 54/109/3
f 57/110/3 54/103/3 56/106/3
f 58/111/3 55/108/3 57/107/3
f 59/112/4 60/113/4 61/114/4
f 60/115/4 62/116/4 61/117/4
f 61/117/4 62/116/4 63/118/4
f 59/112/4 61/114/4 64/119/4
f 61/114/4 63/120/4 64/119/4
f 64/119/4 63/120/4 65/121/4
f 59/112/4 64/119/4 66/122/4
f 64/123/4 65/124/4 66/125/4
f 66/125/4 65/124/4 67/126/4
f 59/112/4 66/122/4 68/127/4
f 66/122/4 67/128/4 68/127/4
f 68/127/4 67/128/4 69/129/4
f 59/112/4 68/127/4 70/130/4
f 68/131/4 69/132/4 71/133/4
f 70/130/4 68/127/4 71/134/4
f 71/133/4 69/132/4 72/135/4
f 73/136/5 74/137/5 75/138/5
f 76/139/5 74/137/5 73/136/5
f 77/140/6 78/141/6 79/142/6
f 78/143/6 80/144/6 81/145/6
f 79/142/6 78/141/6 81/146/6
f 80/147/6 82/148/6 83/149/6
f 81/145/6 80/144/6 83/150/6
f 82/151/6 84/152/6 85/153/6
f 83/149/6 82/148/6 85/154/6
f 85/153/6 84/152/6 86/155/6
f 79/156/6 81/157/6 87/158/6
f 87/158/6 81/157/6 88/159/6
f 81/146/6 83/149/6 89/160/6
f 83/161/6 85/162/6 89/163/6
f 89/163/6 85/162/6 90/164/6
f 88/159/6 81/157/6 91/165/6
f 87/166/6 88/167/6 91/168/6
f 81/146/6 89/160/6 92/169/6
f 91/165/6 81/157/6 92/170/6
f 90/164/6 85/162/6 93/171/6
f 89/172/6 90/173/6 93/174/6
f 85/154/6 86/175/6 94/176/6
f 93/171/6 85/162/6 94/177/6
f 91/168/6 92/178/6 95/179/6
f 87/166/6 91/168/6 95/179/6
f 95/179/6 92/178/6 96/180/6
f 96/180/6 92/178/6 97/181/6
f 92/169/6 89/160/6 98/182/6
f 97/181/6 92/178/6 98/183/6
f 89/172/6 93/174/6 99/184/6
f 98/182/6 89/160/6 99/185/6
f 93/174/6 94/186/6 99/184/6
f 99/184/6 94/186/6 100/187/6
f 100/187/6 94/186/6 101/188/6
f 94/176/6 86/175/6 102/189/6
f 101/188/6 94/186/6 102/190/6
f 95/191/6 96/192/6 103/193/6
f 96/194/6 97/195/6 104/196/6
f 103/193/6 96/192/6 104/197/6
f 97/198/6 98/182/6 105/199/6
f 104/196/6 97/195/6 105/200/6
f 98/182/6 99/185/6 105/199/6
f 99/185/6 100/201/6 105/199/6
f 100/202/6 101/203/6 106/204/6
f 105/199/6 100/201/6 106/205/6
f 101/206/6 102/189/6 107/207/6
f 106/204/6 101/203/6 107/208/6
f 102/189/6 86/175/6 108/209/6
f 107/207/6 102/189/6 108/209/6
f 103/210/6 104/211/6 109/212/6
f 109/212/6 104/211/6 110/213/6
f 104/197/6 105/199/6 111/214/6
f 105/215/6 106/216/6 111/217/6
f 111/217/6 106/216/6 112/218/6
f 106/205/6 107/207/6 113/219/6
f 107/220/6 108/221/6 113/222/6
f 113/222/6 108/221/6 114/223/6
f 110/213/6 104/211/6 115/224/6
f 109/225/6 110/226/6 115/227/6
f 104/197/6 111/214/6 116/228/6
f 115/224/6 104/211/6 116/229/6
f 112/218/6 106/216/6 117/230/6
f 111/231/6 112/232/6 117/233/6
f 106/205/6 113/219/6 118/234/6
f 117/230/6 106/216/6 118/235/6
f 114/223/6 108/221/6 119/236/6
f 113/237/6 114/238/6 119/239/6
f 119/236/6 108/221/6 120/240/6
f 115/227/6 116/241/6 121/242/6
f 109/225/6 115/227/6 121/242/6
f 116/228/6 111/214/6 122/243/6
f 121/242/6 116/241/6 122/244/6
f 117/233/6 118/245/6 123/246/6
f 122/243/6 111/214/6 123/247/6
f 111/231/6 117/233/6 123/246/6
f 123/246/6 118/245/6 124/248/6
f 124/248/6 118/245/6 125/249/6
f 118/234/6 113/219/6 126/250/6
f 125/249/6 118/245/6 126/251/6
f 119/239/6 120/252/6 127/253/6
f 126/250/6 113/219/6 127/254/6
f 113/237/6 119/239/6 127/253/6
f 127/253/6 120/252/6 128/255/6
f 128/255/6 120/252/6 129/256/6
f 121/257/6 122/243/6 130/258/6
f 123/247/6 124/259/6 130/258/6
f 122/243/6 123/247/6 130/258/6
f 124/260/6 125/261/6 131/262/6
f 130/258/6 124/259/6 131/263/6
f 125/264/6 126/250/6 132/265/6
f 131/262/6 125/261/6 132/266/6
f 127/254/6 128/267/6 132/265/6
f 126/250/6 127/254/6 132/265/6
f 128/268/6 129/269/6 133/270/6
f 132/265/6 128/267/6 133/271/6
f 133/270/6 129/269/6 134/272/6
f 130/273/6 131/274/6 135/275/6
f 135/275/6 131/274/6 136/276/6
f 131/263/6 132/265/6 137/277/6
f 132/278/6 133/279/6 137/280/6
f 137/280/6 133/279/6 138/281/6
f 136/276/6 131/274/6 139/282/6
f 135/283/6 136/284/6 139/285/6
f 131/263/6 137/277/6 140/286/6
f 139/282/6 131/274/6 140/287/6
f 138/281/6 133/279/6 141/288/6
f 137/289/6 138/290/6 141/291/6
f 133/271/6 134/292/6 142/293/6
f 141/288/6 133/279/6 142/294/6
f 139/285/6 140/295/6 143/296/6
f 135/283/6 139/285/6 143/296/6
f 143/296/6 140/295/6 144/297/6
f 144/297/6 140/295/6 145/298/6
f 140/286/6 137/277/6 146/299/6
f 145/298/6 140/295/6 146/300/6
f 137/289/6 141/291/6 147/301/6
f 146/299/6 137/277/6 147/302/6
f 141/291/6 142/303/6 147/301/6
f 147/301/6 142/303/6 148/304/6
f 148/304/6 142/303/6 149/305/6
f 142/293/6 134/292/6 150/306/6
f 149/305/6 142/303/6 150/307/6
f 143/308/6 144/309/6 151/310/6
f 144/311/6 145/312/6 152/313/6
f 151/310/6 144/309/6 152/314/6
f 145/315/6 146/299/6 153/316/6
f 152/313/6 145/312/6 153/317/6
f 146/299/6 147/302/6 153/316/6
f 147/302/6 148/318/6 153/316/6
f 148/319/6 149/320/6 154/321/6
f 153/316/6 148/318/6 154/322/6
f 149/323/6 150/306/6 155/324/6
f 154/321/6 149/320/6 155/325/6
f 150/306/6 134/292/6 156/326/6
f 155/324/6 150/306/6 156/326/6
f 151/327/6 152/328/6 157/329/6
f 157/329/6 152/328/6 158/330/6
f 152/314/6 153/316/6 159/331/6
f 153/332/6 154/333/6 159/334/6
f 159/334/6 154/333/6 160/335/6
f 154/322/6 155/324/6 161/336/6
f 155/337/6 156/338/6 161/339/6
f 161/339/6 156/338/6 162/340/6
f 158/330/6 152/328/6 163/341/6
f 157/342/6 158/343/6 163/344/6
f 152/314/6 159/331/6 164/345/6
f 163/341/6 152/328/6 164/346/6
f 160/335/6 154/333/6 165/347/6
f 159/348/6 160/349/6 165/350/6
f 154/322/6 161/336/6 166/351/6
f 165/347/6 154/333/6 166/352/6
f 162/340/6 156/338/6 167/353/6
f 161/354/6 162/355/6 167/356/6
f 167/353/6 156/338/6 168/357/6
f 163/344/6 164/358/6 169/359/6
f 157/342/6 163/344/6 169/359/6
f 164/345/6 159/331/6 170/360/6
f 169/359/6 164/358/6 170/361/6
f 165/350/6 166/362/6 171/363/6
f 170/360/6 159/331/6 171/364/6
f 159/348/6 165/350/6 171/363/6
f 166/351/6 161/336/6 172/365/6
f 171/363/6 166/362/6 172/366/6
f 167/356/6 168/367/6 173/368/6
f 172/365/6 161/336/6 173/369/6
f 161/354/6 167/356/6 173/368/6
f 173/368/6 168/367/6 174/370/6
