# Blender v3.1.2 OBJ File: ''
# www.blender.org
mtllib grass.mtl
o grass
v -2.493399 1.246699 2.493400
v -2.493399 -0.000000 1.246700
v -2.493399 -0.000000 2.493399
v -2.493399 1.246699 1.246700
v -2.493399 1.246700 0.000000
v -2.493399 0.000000 -1.246700
v -2.493399 -0.000000 0.000000
v -2.493399 1.246700 -1.246699
v -2.493399 2.493399 2.493400
v -2.493399 2.493399 1.246700
v -2.493399 3.740099 0.000001
v -2.493399 3.740099 -1.246699
v -1.246700 1.246700 -1.246699
v -1.246700 0.000000 -2.493399
v -1.246700 0.000000 -1.246700
v -1.246700 1.246700 -2.493399
v -0.000000 1.246699 1.246700
v -0.000000 -0.000000 0.000000
v -0.000000 -0.000000 1.246700
v -0.000000 1.246700 0.000000
v 1.246700 1.246699 2.493400
v 1.246700 -0.000000 1.246700
v 1.246700 -0.000000 2.493399
v 1.246700 1.246699 1.246700
v 1.246700 1.246700 -1.246699
v 1.246700 0.000000 -2.493399
v 1.246700 0.000000 -1.246700
v 1.246700 1.246700 -2.493399
v 1.246700 2.493400 -1.246699
v 1.246700 2.493400 -2.493399
v 1.246700 3.740098 2.493400
v 1.246700 3.740099 1.246700
v -1.246700 -0.000000 2.493399
v -1.246700 -0.000000 1.246700
v -1.246700 1.246699 2.493400
v -1.246700 1.246699 1.246700
v -1.246700 -0.000000 0.000000
v -1.246700 0.000000 -1.246700
v -1.246700 1.246700 0.000000
v -1.246700 1.246700 -1.246699
v -1.246700 2.493399 2.493400
v -1.246700 2.493399 1.246700
v -1.246700 3.740099 0.000001
v -1.246700 3.740099 -1.246699
v -0.000000 0.000000 -1.246700
v -0.000000 0.000000 -2.493399
v -0.000000 1.246700 -1.246699
v -0.000000 1.246700 -2.493399
v 1.246700 -0.000000 1.246700
v 1.246700 -0.000000 0.000000
v 1.246700 1.246699 1.246700
v 1.246700 1.246700 0.000000
v 2.493399 -0.000000 2.493399
v 2.493399 -0.000000 1.246700
v 2.493399 1.246699 2.493400
v 2.493399 1.246699 1.246700
v 2.493399 0.000000 -1.246700
v 2.493399 0.000000 -2.493399
v 2.493399 1.246700 -1.246699
v 2.493399 1.246700 -2.493399
v 2.493399 2.493400 -1.246699
v 2.493399 2.493400 -2.493399
v 2.493399 3.740098 2.493400
v 2.493399 3.740099 1.246700
v -1.246700 -0.000000 2.493399
v -2.493399 1.246699 2.493400
v -2.493399 -0.000000 2.493399
v -1.246700 1.246699 2.493400
v -2.493399 2.493399 2.493400
v -1.246700 2.493399 2.493400
v 2.493399 -0.000000 2.493399
v 1.246700 1.246699 2.493400
v 1.246700 -0.000000 2.493399
v 2.493399 1.246699 2.493400
v 1.246700 3.740098 2.493400
v 2.493399 3.740098 2.493400
v 1.246700 -0.000000 1.246700
v -0.000000 1.246699 1.246700
v -0.000000 -0.000000 1.246700
v 1.246700 1.246699 1.246700
v -1.246700 -0.000000 0.000000
v -2.493399 1.246700 0.000000
v -2.493399 -0.000000 0.000000
v -1.246700 1.246700 0.000000
v -2.493399 3.740099 0.000001
v -1.246700 3.740099 0.000001
v -0.000000 0.000000 -1.246700
v -1.246700 1.246700 -1.246699
v -1.246700 0.000000 -1.246700
v -0.000000 1.246700 -1.246699
v 2.493399 0.000000 -1.246700
v 1.246700 1.246700 -1.246699
v 1.246700 0.000000 -1.246700
v 2.493399 1.246700 -1.246699
v 1.246700 2.493400 -1.246699
v 2.493399 2.493400 -1.246699
v -2.493399 -0.000000 1.246700
v -2.493399 1.246699 1.246700
v -1.246700 -0.000000 1.246700
v -2.493399 2.493399 1.246700
v -1.246700 1.246699 1.246700
v -1.246700 2.493399 1.246700
v 1.246700 -0.000000 1.246700
v 1.246700 1.246699 1.246700
v 2.493399 -0.000000 1.246700
v 1.246700 3.740099 1.246700
v 2.493399 1.246699 1.246700
v 2.493399 3.740099 1.246700
v -0.000000 -0.000000 0.000000
v -0.000000 1.246700 0.000000
v 1.246700 -0.000000 0.000000
v 1.246700 1.246700 0.000000
v -2.493399 0.000000 -1.246700
v -2.493399 1.246700 -1.246699
v -1.246700 0.000000 -1.246700
v -2.493399 3.740099 -1.246699
v -1.246700 1.246700 -1.246699
v -1.246700 3.740099 -1.246699
v -1.246700 0.000000 -2.493399
v -1.246700 1.246700 -2.493399
v -0.000000 0.000000 -2.493399
v -0.000000 1.246700 -2.493399
v 1.246700 0.000000 -2.493399
v 1.246700 1.246700 -2.493399
v 2.493399 0.000000 -2.493399
v 1.246700 2.493400 -2.493399
v 2.493399 1.246700 -2.493399
v 2.493399 2.493400 -2.493399
v -2.493399 -0.000000 1.246700
v -1.246700 -0.000000 2.493399
v -2.493399 -0.000000 2.493399
v -1.246700 -0.000000 1.246700
v 1.246700 -0.000000 1.246700
v 2.493399 -0.000000 2.493399
v 1.246700 -0.000000 2.493399
v 2.493399 -0.000000 1.246700
v -0.000000 -0.000000 0.000000
v -0.000000 -0.000000 1.246700
v 1.246700 -0.000000 0.000000
v -2.493399 0.000000 -1.246700
v -1.246700 -0.000000 0.000000
v -2.493399 -0.000000 0.000000
v -1.246700 0.000000 -1.246700
v -1.246700 0.000000 -2.493399
v -0.000000 0.000000 -1.246700
v -0.000000 0.000000 -2.493399
v 1.246700 0.000000 -2.493399
v 2.493399 0.000000 -1.246700
v 1.246700 0.000000 -1.246700
v 2.493399 0.000000 -2.493399
v -0.000000 1.246699 1.246700
v 1.246700 1.246699 1.246700
v -0.000000 1.246700 0.000000
v 1.246700 1.246700 0.000000
v -1.246700 1.246700 -1.246699
v -0.000000 1.246700 -1.246699
v -1.246700 1.246700 -2.493399
v -0.000000 1.246700 -2.493399
v -2.493399 2.493399 2.493400
v -1.246700 2.493399 2.493400
v -2.493399 2.493399 1.246700
v -1.246700 2.493399 1.246700
v 1.246700 2.493400 -1.246699
v 2.493399 2.493400 -1.246699
v 1.246700 2.493400 -2.493399
v 2.493399 2.493400 -2.493399
v 1.246700 3.740098 2.493400
v 2.493399 3.740098 2.493400
v 1.246700 3.740099 1.246700
v 2.493399 3.740099 1.246700
v -2.493399 3.740099 0.000001
v -1.246700 3.740099 0.000001
v -2.493399 3.740099 -1.246699
v -1.246700 3.740099 -1.246699
vt 0.052734 0.500000
vt 0.052734 0.500000
vt 0.052734 0.500000
vt 0.052734 0.500000
vt 0.052734 0.500000
vt 0.052734 0.500000
vt 0.052734 0.500000
vt 0.052734 0.500000
vt 0.017578 0.500000
vt 0.017578 0.500000
vt 0.017578 0.500000
vt 0.017578 0.500000
vt 0.017578 0.500000
vt 0.017578 0.500000
vt 0.017578 0.500000
vt 0.017578 0.500000
vt 0.052734 0.500000
vt 0.052734 0.500000
vt 0.052734 0.500000
vt 0.052734 0.500000
vt 0.052734 0.500000
vt 0.052734 0.500000
vt 0.052734 0.500000
vt 0.052734 0.500000
vt 0.052734 0.500000
vt 0.052734 0.500000
vt 0.052734 0.500000
vt 0.052734 0.500000
vt 0.052734 0.500000
vt 0.052734 0.500000
vt 0.052734 0.500000
vt 0.052734 0.500000
vt 0.021484 0.500000
vt 0.021484 0.500000
vt 0.021484 0.500000
vt 0.021484 0.500000
vt 0.017578 0.500000
vt 0.017578 0.500000
vt 0.017578 0.500000
vt 0.017578 0.500000
vt 0.052734 0.500000
vt 0.052734 0.500000
vt 0.052734 0.500000
vt 0.052734 0.500000
vt 0.052734 0.500000
vt 0.052734 0.500000
vt 0.052734 0.500000
vt 0.052734 0.500000
vt 0.017578 0.500000
vt 0.017578 0.500000
vt 0.017578 0.500000
vt 0.017578 0.500000
vt 0.017578 0.500000
vt 0.017578 0.500000
vt 0.017578 0.500000
vt 0.017578 0.500000
vt 0.052734 0.500000
vt 0.052734 0.500000
vt 0.052734 0.500000
vt 0.052734 0.500000
vt 0.052734 0.500000
vt 0.052734 0.500000
vt 0.052734 0.500000
vt 0.052734 0.500000
vt 0.052734 0.500000
vt 0.052734 0.500000
vt 0.052734 0.500000
vt 0.052734 0.500000
vt 0.052734 0.500000
vt 0.052734 0.500000
vt 0.052734 0.500000
vt 0.052734 0.500000
vt 0.021484 0.500000
vt 0.021484 0.500000
vt 0.021484 0.500000
vt 0.021484 0.500000
vt 0.017578 0.500000
vt 0.017578 0.500000
vt 0.017578 0.500000
vt 0.017578 0.500000
vt 0.052734 0.500000
vt 0.052734 0.500000
vt 0.052734 0.500000
vt 0.017578 0.500000
vt 0.017578 0.500000
vt 0.017578 0.500000
vt 0.052734 0.500000
vt 0.017578 0.500000
vt 0.052734 0.500000
vt 0.052734 0.500000
vt 0.052734 0.500000
vt 0.017578 0.500000
vt 0.017578 0.500000
vt 0.017578 0.500000
vt 0.052734 0.500000
vt 0.017578 0.500000
vt 0.052734 0.500000
vt 0.052734 0.500000
vt 0.052734 0.500000
vt 0.052734 0.500000
vt 0.052734 0.500000
vt 0.052734 0.500000
vt 0.052734 0.500000
vt 0.017578 0.500000
vt 0.017578 0.500000
vt 0.017578 0.500000
vt 0.052734 0.500000
vt 0.017578 0.500000
vt 0.052734 0.500000
vt 0.052734 0.500000
vt 0.052734 0.500000
vt 0.052734 0.500000
vt 0.052734 0.500000
vt 0.052734 0.500000
vt 0.052734 0.500000
vt 0.021484 0.500000
vt 0.021484 0.500000
vt 0.021484 0.500000
vt 0.052734 0.500000
vt 0.021484 0.500000
vt 0.052734 0.500000
vt 0.052734 0.500000
vt 0.052734 0.500000
vt 0.017578 0.500000
vt 0.017578 0.500000
vt 0.017578 0.500000
vt 0.052734 0.500000
vt 0.017578 0.500000
vt 0.052734 0.500000
vt 0.052734 0.500000
vt 0.052734 0.500000
vt 0.017578 0.500000
vt 0.017578 0.500000
vt 0.017578 0.500000
vt 0.052734 0.500000
vt 0.017578 0.500000
vt 0.052734 0.500000
vt 0.052734 0.500000
vt 0.052734 0.500000
vt 0.052734 0.500000
vt 0.052734 0.500000
vt 0.052734 0.500000
vt 0.052734 0.500000
vt 0.017578 0.500000
vt 0.017578 0.500000
vt 0.017578 0.500000
vt 0.052734 0.500000
vt 0.017578 0.500000
vt 0.052734 0.500000
vt 0.052734 0.500000
vt 0.052734 0.500000
vt 0.052734 0.500000
vt 0.052734 0.500000
vt 0.052734 0.500000
vt 0.052734 0.500000
vt 0.021484 0.500000
vt 0.021484 0.500000
vt 0.021484 0.500000
vt 0.052734 0.500000
vt 0.021484 0.500000
vt 0.052734 0.500000
vt 0.052734 0.500000
vt 0.052734 0.500000
vt 0.052734 0.500000
vt 0.052734 0.500000
vt 0.052734 0.500000
vt 0.052734 0.500000
vt 0.052734 0.500000
vt 0.052734 0.500000
vt 0.052734 0.500000
vt 0.052734 0.500000
vt 0.052734 0.500000
vt 0.052734 0.500000
vt 0.052734 0.500000
vt 0.052734 0.500000
vt 0.052734 0.500000
vt 0.052734 0.500000
vt 0.052734 0.500000
vt 0.052734 0.500000
vt 0.052734 0.500000
vt 0.052734 0.500000
vt 0.052734 0.500000
vt 0.052734 0.500000
vt 0.052734 0.500000
vt 0.052734 0.500000
vt 0.052734 0.500000
vt 0.052734 0.500000
vt 0.052734 0.500000
vt 0.052734 0.500000
vt 0.052734 0.500000
vt 0.017578 0.500000
vt 0.017578 0.500000
vt 0.017578 0.500000
vt 0.017578 0.500000
vt 0.021484 0.500000
vt 0.021484 0.500000
vt 0.021484 0.500000
vt 0.021484 0.500000
vt 0.017578 0.500000
vt 0.017578 0.500000
vt 0.017578 0.500000
vt 0.017578 0.500000
vt 0.017578 0.500000
vt 0.017578 0.500000
vt 0.017578 0.500000
vt 0.017578 0.500000
vn -1.0000 0.0000 0.0000
vn 1.0000 0.0000 0.0000
vn 0.0000 -0.0000 1.0000
vn 0.0000 0.0000 -1.0000
vn 0.0000 -1.0000 -0.0000
vn 0.0000 1.0000 0.0000
usemtl palette.032
s 1
f 1/1/1 2/2/1 3/3/1
f 4/4/1 2/2/1 1/1/1
f 5/5/1 6/6/1 7/7/1
f 8/8/1 6/6/1 5/5/1
f 9/9/1 4/10/1 1/11/1
f 10/12/1 4/10/1 9/9/1
f 11/13/1 8/14/1 5/15/1
f 12/16/1 8/14/1 11/13/1
f 13/17/1 14/18/1 15/19/1
f 16/20/1 14/18/1 13/17/1
f 17/21/1 18/22/1 19/23/1
f 20/24/1 18/22/1 17/21/1
f 21/25/1 22/26/1 23/27/1
f 24/28/1 22/26/1 21/25/1
f 25/29/1 26/30/1 27/31/1
f 28/32/1 26/30/1 25/29/1
f 29/33/1 28/34/1 25/35/1
f 30/36/1 28/34/1 29/33/1
f 31/37/1 24/38/1 21/39/1
f 32/40/1 24/38/1 31/37/1
f 33/41/2 34/42/2 35/43/2
f 35/43/2 34/42/2 36/44/2
f 37/45/2 38/46/2 39/47/2
f 39/47/2 38/46/2 40/48/2
f 35/49/2 36/50/2 41/51/2
f 41/51/2 36/50/2 42/52/2
f 39/53/2 40/54/2 43/55/2
f 43/55/2 40/54/2 44/56/2
f 45/57/2 46/58/2 47/59/2
f 47/59/2 46/58/2 48/60/2
f 49/61/2 50/62/2 51/63/2
f 51/63/2 50/62/2 52/64/2
f 53/65/2 54/66/2 55/67/2
f 55/67/2 54/66/2 56/68/2
f 57/69/2 58/70/2 59/71/2
f 59/71/2 58/70/2 60/72/2
f 59/73/2 60/74/2 61/75/2
f 61/75/2 60/74/2 62/76/2
f 55/77/2 56/78/2 63/79/2
f 63/79/2 56/78/2 64/80/2
f 65/81/3 66/82/3 67/83/3
f 68/84/3 69/85/3 66/86/3
f 68/87/3 66/82/3 65/81/3
f 70/88/3 69/85/3 68/84/3
f 71/89/3 72/90/3 73/91/3
f 74/92/3 75/93/3 72/94/3
f 74/95/3 72/90/3 71/89/3
f 76/96/3 75/93/3 74/92/3
f 77/97/3 78/98/3 79/99/3
f 80/100/3 78/98/3 77/97/3
f 81/101/3 82/102/3 83/103/3
f 84/104/3 85/105/3 82/106/3
f 84/107/3 82/102/3 81/101/3
f 86/108/3 85/105/3 84/104/3
f 87/109/3 88/110/3 89/111/3
f 90/112/3 88/110/3 87/109/3
f 91/113/3 92/114/3 93/115/3
f 94/116/3 95/117/3 92/118/3
f 94/119/3 92/114/3 91/113/3
f 96/120/3 95/117/3 94/116/3
f 97/121/4 98/122/4 99/123/4
f 98/124/4 100/125/4 101/126/4
f 99/123/4 98/122/4 101/127/4
f 101/126/4 100/125/4 102/128/4
f 103/129/4 104/130/4 105/131/4
f 104/132/4 106/133/4 107/134/4
f 105/131/4 104/130/4 107/135/4
f 107/134/4 106/133/4 108/136/4
f 109/137/4 110/138/4 111/139/4
f 111/139/4 110/138/4 112/140/4
f 113/141/4 114/142/4 115/143/4
f 114/144/4 116/145/4 117/146/4
f 115/143/4 114/142/4 117/147/4
f 117/146/4 116/145/4 118/148/4
f 119/149/4 120/150/4 121/151/4
f 121/151/4 120/150/4 122/152/4
f 123/153/4 124/154/4 125/155/4
f 124/156/4 126/157/4 127/158/4
f 125/155/4 124/154/4 127/159/4
f 127/158/4 126/157/4 128/160/4
f 129/161/5 130/162/5 131/163/5
f 132/164/5 130/162/5 129/161/5
f 133/165/5 134/166/5 135/167/5
f 136/168/5 134/166/5 133/165/5
f 137/169/5 133/165/5 138/170/5
f 139/171/5 133/165/5 137/169/5
f 140/172/5 141/173/5 142/174/5
f 143/175/5 141/173/5 140/172/5
f 144/176/5 145/177/5 143/175/5
f 146/178/5 145/177/5 144/176/5
f 147/179/5 148/180/5 149/181/5
f 150/182/5 148/180/5 147/179/5
f 151/183/6 152/184/6 153/185/6
f 153/185/6 152/184/6 154/186/6
f 155/187/6 156/188/6 157/189/6
f 157/189/6 156/188/6 158/190/6
f 159/191/6 160/192/6 161/193/6
f 161/193/6 160/192/6 162/194/6
f 163/195/6 164/196/6 165/197/6
f 165/197/6 164/196/6 166/198/6
f 167/199/6 168/200/6 169/201/6
f 169/201/6 168/200/6 170/202/6
f 171/203/6 172/204/6 173/205/6
f 173/205/6 172/204/6 174/206/6
